{
    "asset" : {
        "generator" : "Khronos glTF Blender I/O v3.2.43",
        "version" : "2.0"
    },
    "scene" : 0,
    "scenes" : [
        {
            "name" : "Scene",
            "nodes" : [
                0,
                1
            ]
        }
    ],
    "nodes" : [
        {
            "mesh" : 0,
            "name" : "Plane",
            "rotation" : [
                0.7071068286895752,
                0,
                0,
                0.7071068286895752
            ]
        },
        {
            "mesh" : 1,
            "name" : "Plane.002",
            "rotation" : [
                0.7071068286895752,
                0,
                0,
                0.7071068286895752
            ],
            "translation" : [
                0,
                -1.3682291507720947,
                0
            ]
        }
    ],
    "materials" : [
        {
            "doubleSided" : true,
            "name" : "Material",
            "pbrMetallicRoughness" : {
                "baseColorFactor" : [
                    0,
                    0.002115471987053752,
                    0.8000000715255737,
                    1
                ],
                "metallicFactor" : 0,
                "roughnessFactor" : 0.4000000059604645
            }
        },
        {
            "doubleSided" : true,
            "name" : "Material.003",
            "pbrMetallicRoughness" : {
                "baseColorFactor" : [
                    0,
                    0.8000000715255737,
                    0.7426726222038269,
                    1
                ],
                "metallicFactor" : 0,
                "roughnessFactor" : 0.5
            }
        },
        {
            "doubleSided" : true,
            "name" : "Material.002",
            "pbrMetallicRoughness" : {
                "baseColorFactor" : [
                    1,
                    0.4205496609210968,
                    0.17644815146923065,
                    1
                ],
                "metallicFactor" : 0,
                "roughnessFactor" : 0.5
            }
        },
        {
            "doubleSided" : true,
            "name" : "Material.004",
            "pbrMetallicRoughness" : {
                "baseColorFactor" : [
                    0.4851367771625519,
                    0.33519113063812256,
                    0.8000000715255737,
                    1
                ],
                "metallicFactor" : 0,
                "roughnessFactor" : 0.5
            }
        },
        {
            "doubleSided" : true,
            "name" : "Material.005",
            "pbrMetallicRoughness" : {
                "baseColorFactor" : [
                    0.11046556383371353,
                    0.2551534175872803,
                    0.8000000715255737,
                    1
                ],
                "metallicFactor" : 0,
                "roughnessFactor" : 0.5
            }
        }
    ],
    "meshes" : [
        {
            "name" : "Plane",
            "primitives" : [
                {
                    "attributes" : {
                        "POSITION" : 0,
                        "NORMAL" : 1,
                        "TEXCOORD_0" : 2
                    },
                    "indices" : 3,
                    "material" : 0
                },
                {
                    "attributes" : {
                        "POSITION" : 4,
                        "NORMAL" : 5,
                        "TEXCOORD_0" : 6
                    },
                    "indices" : 7,
                    "material" : 1
                },
                {
                    "attributes" : {
                        "POSITION" : 8,
                        "NORMAL" : 9,
                        "TEXCOORD_0" : 10
                    },
                    "indices" : 11,
                    "material" : 2
                },
                {
                    "attributes" : {
                        "POSITION" : 12,
                        "NORMAL" : 13,
                        "TEXCOORD_0" : 14
                    },
                    "indices" : 15,
                    "material" : 3
                },
                {
                    "attributes" : {
                        "POSITION" : 16,
                        "NORMAL" : 17,
                        "TEXCOORD_0" : 18
                    },
                    "indices" : 19,
                    "material" : 4
                }
            ]
        },
        {
            "name" : "Plane.002",
            "primitives" : [
                {
                    "attributes" : {
                        "POSITION" : 20,
                        "NORMAL" : 21,
                        "TEXCOORD_0" : 22
                    },
                    "indices" : 23,
                    "material" : 0
                },
                {
                    "attributes" : {
                        "POSITION" : 24,
                        "NORMAL" : 25,
                        "TEXCOORD_0" : 26
                    },
                    "indices" : 15,
                    "material" : 3
                },
                {
                    "attributes" : {
                        "POSITION" : 27,
                        "NORMAL" : 28,
                        "TEXCOORD_0" : 29
                    },
                    "indices" : 19,
                    "material" : 2
                }
            ]
        }
    ],
    "accessors" : [
        {
            "bufferView" : 0,
            "componentType" : 5126,
            "count" : 840,
            "max" : [
                1.366783618927002,
                0.5851879715919495,
                0.6898390650749207
            ],
            "min" : [
                -1.366783618927002,
                -0.5851879715919495,
                -2.4041736125946045
            ],
            "type" : "VEC3"
        },
        {
            "bufferView" : 1,
            "componentType" : 5126,
            "count" : 840,
            "type" : "VEC3"
        },
        {
            "bufferView" : 2,
            "componentType" : 5126,
            "count" : 840,
            "type" : "VEC2"
        },
        {
            "bufferView" : 3,
            "componentType" : 5123,
            "count" : 1260,
            "type" : "SCALAR"
        },
        {
            "bufferView" : 4,
            "componentType" : 5126,
            "count" : 6,
            "max" : [
                1.366783618927002,
                0.5841732621192932,
                -0.029231734573841095
            ],
            "min" : [
                -1.366783618927002,
                -0.5841732621192932,
                -2.403029441833496
            ],
            "type" : "VEC3"
        },
        {
            "bufferView" : 5,
            "componentType" : 5126,
            "count" : 6,
            "type" : "VEC3"
        },
        {
            "bufferView" : 6,
            "componentType" : 5126,
            "count" : 6,
            "type" : "VEC2"
        },
        {
            "bufferView" : 7,
            "componentType" : 5123,
            "count" : 6,
            "type" : "SCALAR"
        },
        {
            "bufferView" : 8,
            "componentType" : 5126,
            "count" : 6,
            "max" : [
                1.366783618927002,
                0.5841732621192932,
                -0.02923174947500229
            ],
            "min" : [
                -1.366783618927002,
                -0.5841732621192932,
                -2.403029441833496
            ],
            "type" : "VEC3"
        },
        {
            "bufferView" : 9,
            "componentType" : 5126,
            "count" : 6,
            "type" : "VEC3"
        },
        {
            "bufferView" : 10,
            "componentType" : 5126,
            "count" : 6,
            "type" : "VEC2"
        },
        {
            "bufferView" : 11,
            "componentType" : 5123,
            "count" : 6,
            "type" : "SCALAR"
        },
        {
            "bufferView" : 12,
            "componentType" : 5126,
            "count" : 6,
            "max" : [
                1.3498896360397339,
                0.5792050361633301,
                0.6885401606559753
            ],
            "min" : [
                -1.3498896360397339,
                -0.5792050361633301,
                -0.6124656796455383
            ],
            "type" : "VEC3"
        },
        {
            "bufferView" : 13,
            "componentType" : 5126,
            "count" : 6,
            "type" : "VEC3"
        },
        {
            "bufferView" : 14,
            "componentType" : 5126,
            "count" : 6,
            "type" : "VEC2"
        },
        {
            "bufferView" : 15,
            "componentType" : 5123,
            "count" : 6,
            "type" : "SCALAR"
        },
        {
            "bufferView" : 16,
            "componentType" : 5126,
            "count" : 6,
            "max" : [
                1.3498896360397339,
                0.5792050361633301,
                0.6885401606559753
            ],
            "min" : [
                -1.3498896360397339,
                -0.5792050361633301,
                -0.6124656796455383
            ],
            "type" : "VEC3"
        },
        {
            "bufferView" : 17,
            "componentType" : 5126,
            "count" : 6,
            "type" : "VEC3"
        },
        {
            "bufferView" : 18,
            "componentType" : 5126,
            "count" : 6,
            "type" : "VEC2"
        },
        {
            "bufferView" : 19,
            "componentType" : 5123,
            "count" : 6,
            "type" : "SCALAR"
        },
        {
            "bufferView" : 20,
            "componentType" : 5126,
            "count" : 852,
            "max" : [
                1.366783618927002,
                0.5851879119873047,
                0.37669801712036133
            ],
            "min" : [
                -1.366783618927002,
                -0.5851880311965942,
                -1.1424891948699951
            ],
            "type" : "VEC3"
        },
        {
            "bufferView" : 21,
            "componentType" : 5126,
            "count" : 852,
            "type" : "VEC3"
        },
        {
            "bufferView" : 22,
            "componentType" : 5126,
            "count" : 852,
            "type" : "VEC2"
        },
        {
            "bufferView" : 23,
            "componentType" : 5123,
            "count" : 1272,
            "type" : "SCALAR"
        },
        {
            "bufferView" : 24,
            "componentType" : 5126,
            "count" : 6,
            "max" : [
                1.3498896360397339,
                0.5792049765586853,
                0.375399112701416
            ],
            "min" : [
                -1.3498896360397339,
                -0.5792050957679749,
                -1.085252046585083
            ],
            "type" : "VEC3"
        },
        {
            "bufferView" : 25,
            "componentType" : 5126,
            "count" : 6,
            "type" : "VEC3"
        },
        {
            "bufferView" : 26,
            "componentType" : 5126,
            "count" : 6,
            "type" : "VEC2"
        },
        {
            "bufferView" : 27,
            "componentType" : 5126,
            "count" : 6,
            "max" : [
                1.3498896360397339,
                0.5792049765586853,
                0.375399112701416
            ],
            "min" : [
                -1.3498896360397339,
                -0.5792050957679749,
                -1.085252046585083
            ],
            "type" : "VEC3"
        },
        {
            "bufferView" : 28,
            "componentType" : 5126,
            "count" : 6,
            "type" : "VEC3"
        },
        {
            "bufferView" : 29,
            "componentType" : 5126,
            "count" : 6,
            "type" : "VEC2"
        }
    ],
    "bufferViews" : [
        {
            "buffer" : 0,
            "byteLength" : 10080,
            "byteOffset" : 0
        },
        {
            "buffer" : 0,
            "byteLength" : 10080,
            "byteOffset" : 10080
        },
        {
            "buffer" : 0,
            "byteLength" : 6720,
            "byteOffset" : 20160
        },
        {
            "buffer" : 0,
            "byteLength" : 2520,
            "byteOffset" : 26880
        },
        {
            "buffer" : 0,
            "byteLength" : 72,
            "byteOffset" : 29400
        },
        {
            "buffer" : 0,
            "byteLength" : 72,
            "byteOffset" : 29472
        },
        {
            "buffer" : 0,
            "byteLength" : 48,
            "byteOffset" : 29544
        },
        {
            "buffer" : 0,
            "byteLength" : 12,
            "byteOffset" : 29592
        },
        {
            "buffer" : 0,
            "byteLength" : 72,
            "byteOffset" : 29604
        },
        {
            "buffer" : 0,
            "byteLength" : 72,
            "byteOffset" : 29676
        },
        {
            "buffer" : 0,
            "byteLength" : 48,
            "byteOffset" : 29748
        },
        {
            "buffer" : 0,
            "byteLength" : 12,
            "byteOffset" : 29796
        },
        {
            "buffer" : 0,
            "byteLength" : 72,
            "byteOffset" : 29808
        },
        {
            "buffer" : 0,
            "byteLength" : 72,
            "byteOffset" : 29880
        },
        {
            "buffer" : 0,
            "byteLength" : 48,
            "byteOffset" : 29952
        },
        {
            "buffer" : 0,
            "byteLength" : 12,
            "byteOffset" : 30000
        },
        {
            "buffer" : 0,
            "byteLength" : 72,
            "byteOffset" : 30012
        },
        {
            "buffer" : 0,
            "byteLength" : 72,
            "byteOffset" : 30084
        },
        {
            "buffer" : 0,
            "byteLength" : 48,
            "byteOffset" : 30156
        },
        {
            "buffer" : 0,
            "byteLength" : 12,
            "byteOffset" : 30204
        },
        {
            "buffer" : 0,
            "byteLength" : 10224,
            "byteOffset" : 30216
        },
        {
            "buffer" : 0,
            "byteLength" : 10224,
            "byteOffset" : 40440
        },
        {
            "buffer" : 0,
            "byteLength" : 6816,
            "byteOffset" : 50664
        },
        {
            "buffer" : 0,
            "byteLength" : 2544,
            "byteOffset" : 57480
        },
        {
            "buffer" : 0,
            "byteLength" : 72,
            "byteOffset" : 60024
        },
        {
            "buffer" : 0,
            "byteLength" : 72,
            "byteOffset" : 60096
        },
        {
            "buffer" : 0,
            "byteLength" : 48,
            "byteOffset" : 60168
        },
        {
            "buffer" : 0,
            "byteLength" : 72,
            "byteOffset" : 60216
        },
        {
            "buffer" : 0,
            "byteLength" : 72,
            "byteOffset" : 60288
        },
        {
            "buffer" : 0,
            "byteLength" : 48,
            "byteOffset" : 60360
        }
    ],
    "buffers" : [
        {
            "byteLength" : 60408,
            "uri" : "data:application/octet-stream;base64,"
        }
    ]
}
